<?xml version="1.0" encoding="UTF-8"?>
<svg version="1.1" xmlns="http://www.w3.org/2000/svg" width="192" height="192">
<path d="M0 0 C0.93481201 0.00644531 1.86962402 0.01289062 2.83276367 0.01953125 C9.78400793 0.20429808 15.1313361 1.05072812 20.6875 5.5 C21.409375 6.06976563 22.13125 6.63953125 22.875 7.2265625 C29.99735863 13.58955201 33.13956326 21.21237959 34.6875 30.5 C34.6875 36.11 34.6875 41.72 34.6875 47.5 C48.5475 47.5 62.4075 47.5 76.6875 47.5 C76.6875 92.71 76.6875 137.92 76.6875 184.5 C53.979375 184.62375 53.979375 184.62375 30.8125 184.75 C26.04828613 184.78641602 21.28407227 184.82283203 16.37548828 184.86035156 C10.51733398 184.87841797 10.51733398 184.87841797 7.76705933 184.8817749 C5.86329397 184.8878811 3.95954322 184.90187399 2.05587769 184.92230225 C-12.46985144 185.07026423 -22.92629354 184.31075651 -34.3125 174.5 C-35.18841797 173.78263672 -35.18841797 173.78263672 -36.08203125 173.05078125 C-44.58507012 165.43067644 -51.67506447 152.57233818 -52.48046875 141.109375 C-52.49681978 139.2388167 -52.41626387 137.36774965 -52.3125 135.5 C-54.6225 135.5 -56.9325 135.5 -59.3125 135.5 C-58.7587522 130.39545207 -56.28657204 126.53424443 -53.75 122.1875 C-53.11288086 121.07665039 -53.11288086 121.07665039 -52.46289062 119.94335938 C-51.41898347 118.12531882 -50.36657808 116.31216252 -49.3125 114.5 C-48.3225 114.5 -47.3325 114.5 -46.3125 114.5 C-44.63546194 117.43169446 -42.97270482 120.37124524 -41.3125 123.3125 C-40.83554687 124.14587891 -40.35859375 124.97925781 -39.8671875 125.83789062 C-39.41601562 126.64033203 -38.96484375 127.44277344 -38.5 128.26953125 C-38.08105469 129.00792236 -37.66210938 129.74631348 -37.23046875 130.50708008 C-36.3125 132.5 -36.3125 132.5 -36.3125 135.5 C-38.2925 135.5 -40.2725 135.5 -42.3125 135.5 C-38.97671599 148.94124735 -34.55184603 162.09575448 -22.1640625 169.84375 C-15.03048907 173.55639044 -8.63976944 173.74038147 -0.6875 173.8125 C0.35535156 173.84150391 1.39820312 173.87050781 2.47265625 173.90039062 C13.31193262 173.9883498 22.34816013 170.44168514 30.6875 163.5 C36.6783259 157.43685025 39.77943571 150.42011981 42.6875 142.5 C44.33416203 142.6135629 45.97986082 142.74117381 47.625 142.875 C48.54152344 142.94460937 49.45804687 143.01421875 50.40234375 143.0859375 C51.15644531 143.22257813 51.91054687 143.35921875 52.6875 143.5 C53.6875 145.5 53.6875 145.5 52.9375 148.1875 C50.1353836 155.61310845 47.03828245 162.52922765 41.6875 168.5 C41.0275 168.5 40.3675 168.5 39.6875 168.5 C39.39875 169.139375 39.11 169.77875 38.8125 170.4375 C37.6875 172.5 37.6875 172.5 35.6875 173.5 C45.9175 173.83 56.1475 174.16 66.6875 174.5 C66.6875 135.89 66.6875 97.28 66.6875 57.5 C56.1275 57.5 45.5675 57.5 34.6875 57.5 C34.6875 62.12 34.6875 66.74 34.6875 71.5 C31.0575 71.5 27.4275 71.5 23.6875 71.5 C23.6875 66.88 23.6875 62.26 23.6875 57.5 C8.1775 57.5 -7.3325 57.5 -23.3125 57.5 C-23.3125 62.12 -23.3125 66.74 -23.3125 71.5 C-26.9425 71.5 -30.5725 71.5 -34.3125 71.5 C-34.3125 66.88 -34.3125 62.26 -34.3125 57.5 C-44.2125 57.5 -54.1125 57.5 -64.3125 57.5 C-64.3125 96.11 -64.3125 134.72 -64.3125 174.5 C-54.7425 174.5 -45.1725 174.5 -35.3125 174.5 C-34.3125 175.5 -34.3125 175.5 -34.3125 184.5 C-47.8425 184.5 -61.3725 184.5 -75.3125 184.5 C-75.3125 139.29 -75.3125 94.08 -75.3125 47.5 C-61.7825 47.5 -48.2525 47.5 -34.3125 47.5 C-34.3125 41.56 -34.3125 35.62 -34.3125 29.5 C-31.94332092 18.27757278 -26.73666433 10.20394024 -17.3125 3.5 C-11.51908022 0.36939428 -6.53055985 -0.04660109 0 0 Z M-19.3125 19.5 C-25.59593857 28.21573737 -23.3125 36.02945549 -23.3125 47.5 C-7.8025 47.5 7.7075 47.5 23.6875 47.5 C24.9702374 30.36068255 24.9702374 30.36068255 17.86328125 17.29296875 C12.41570729 12.59914716 7.30108513 10.19203777 0.1875 9.125 C-8.00805616 10.35433342 -13.63362359 13.44698585 -19.3125 19.5 Z " fill="#6C27D8" transform="translate(95.3125,-0.49999999999999994)"/>
<path d="M0 0 C8.14480477 6.22386025 15.03212063 13.23137093 18.609375 22.95703125 C19.021875 24.05144531 19.434375 25.14585938 19.859375 26.2734375 C20.21773438 27.31242187 20.57609375 28.35140625 20.9453125 29.421875 C22.303354 32.23597681 22.303354 32.23597681 25.6484375 32.75 C26.58429688 32.79898438 27.52015625 32.84796875 28.484375 32.8984375 C27.51032301 37.43792302 25.36597104 41.06905373 23.109375 45.0859375 C22.50996094 46.19098633 22.50996094 46.19098633 21.8984375 47.31835938 C21.5065625 48.01896484 21.1146875 48.71957031 20.7109375 49.44140625 C20.35596191 50.08102295 20.00098633 50.72063965 19.63525391 51.37963867 C18.484375 52.8984375 18.484375 52.8984375 15.484375 53.8984375 C15.09765625 53.18558594 14.7109375 52.47273438 14.3125 51.73828125 C13.79171875 50.78050781 13.2709375 49.82273438 12.734375 48.8359375 C12.19039063 47.83433594 11.64640625 46.83273438 11.0859375 45.80078125 C9.80040313 43.47114214 8.47434525 41.1815712 7.109375 38.8984375 C5.484375 35.8984375 5.484375 35.8984375 5.484375 32.8984375 C7.134375 32.5684375 8.784375 32.2384375 10.484375 31.8984375 C4.37782966 18.92989791 -2.12560541 10.42539234 -15.828125 5.0234375 C-27.44737792 1.47858068 -39.43268772 1.91632287 -50.44140625 7.33984375 C-58.02096821 11.85822716 -64.81138698 17.73437062 -68.515625 25.8984375 C-72.00102417 25.25299321 -74.54381557 23.79709353 -77.515625 21.8984375 C-76.40239462 13.86626892 -69.98775968 7.64743024 -63.94921875 2.59765625 C-44.83289986 -10.75001424 -20.0413189 -12.90241772 0 0 Z " fill="#6C27D8" transform="translate(126.515625,86.1015625)"/>
</svg>
